<mxfile host="65bd71144e">
    <diagram id="nzZXOHzotId3RKrNGlGo" name="Page-1">
        <mxGraphModel dx="434" dy="352" grid="0" gridSize="10" guides="1" tooltips="1" connect="1" arrows="1" fold="1" page="1" pageScale="1" pageWidth="850" pageHeight="1100" math="0" shadow="0">
            <root>
                <mxCell id="0"/>
                <mxCell id="1" parent="0"/>
                <mxCell id="4" style="edgeStyle=none;html=1;" parent="1" source="2" target="3" edge="1">
                    <mxGeometry relative="1" as="geometry"/>
                </mxCell>
                <mxCell id="2" value="inicio" style="strokeWidth=2;html=1;shape=mxgraph.flowchart.terminator;whiteSpace=wrap;" parent="1" vertex="1">
                    <mxGeometry x="333" y="35" width="71" height="28" as="geometry"/>
                </mxCell>
                <mxCell id="11" style="edgeStyle=none;html=1;entryX=0.5;entryY=0;entryDx=0;entryDy=0;entryPerimeter=0;" parent="1" source="3" target="9" edge="1">
                    <mxGeometry relative="1" as="geometry"/>
                </mxCell>
                <mxCell id="3" value="&lt;div style=&quot;color: rgb(216, 222, 233); background-color: rgb(54, 61, 70); font-family: &amp;quot;JetBrains Mono&amp;quot;, Calibri, &amp;quot;MesloLGL Nerd Font&amp;quot;, Consolas, &amp;quot;Courier New&amp;quot;, Consolas, &amp;quot;Courier New&amp;quot;, monospace; font-size: 13px; line-height: 18px;&quot;&gt;&lt;span style=&quot;color: #c594c5;font-style: italic;&quot;&gt;int&lt;/span&gt; &lt;span style=&quot;color: #f9ae58;&quot;&gt;numero1&lt;/span&gt;&lt;span style=&quot;color: #f97b58;&quot;&gt;=&lt;/span&gt;&lt;span style=&quot;color: #f9ae58;&quot;&gt;0&lt;/span&gt;&lt;span style=&quot;color: #a7adba;&quot;&gt;,&lt;/span&gt; &lt;span style=&quot;color: #f9ae58;&quot;&gt;numero2&lt;/span&gt;&lt;span style=&quot;color: #f97b58;&quot;&gt;=&lt;/span&gt;&lt;span style=&quot;color: #f9ae58;&quot;&gt;0&lt;/span&gt;&lt;span style=&quot;color: #a7adba;&quot;&gt;;&lt;/span&gt;&lt;/div&gt;" style="rounded=1;whiteSpace=wrap;html=1;absoluteArcSize=1;arcSize=14;strokeWidth=2;" parent="1" vertex="1">
                    <mxGeometry x="288.5" y="107" width="160" height="40" as="geometry"/>
                </mxCell>
                <mxCell id="13" style="edgeStyle=none;html=1;" parent="1" source="9" target="12" edge="1">
                    <mxGeometry relative="1" as="geometry"/>
                </mxCell>
                <mxCell id="9" value="&lt;div style=&quot;color: rgb(216, 222, 233); background-color: rgb(54, 61, 70); font-family: &amp;quot;JetBrains Mono&amp;quot;, Calibri, &amp;quot;MesloLGL Nerd Font&amp;quot;, Consolas, &amp;quot;Courier New&amp;quot;, Consolas, &amp;quot;Courier New&amp;quot;, monospace; font-size: 13px; line-height: 18px;&quot;&gt;&lt;span style=&quot;color: #5fb3b3;&quot;&gt;printf&lt;/span&gt;&lt;span style=&quot;color: #ffffff;&quot;&gt;(&lt;/span&gt;&lt;span style=&quot;color: #5fb3b3;&quot;&gt;&quot;&lt;/span&gt;&lt;span style=&quot;color: #99c794;&quot;&gt;Ingresa 1er num: &lt;/span&gt;&lt;span style=&quot;color: #5fb3b3;&quot;&gt;&quot;&lt;/span&gt;&lt;span style=&quot;color: #ffffff;&quot;&gt;)&lt;/span&gt;&lt;span style=&quot;color: #a7adba;&quot;&gt;;&lt;/span&gt;&lt;/div&gt;" style="strokeWidth=2;html=1;shape=mxgraph.flowchart.document2;whiteSpace=wrap;size=0.25;" parent="1" vertex="1">
                    <mxGeometry x="246" y="176" width="245" height="46" as="geometry"/>
                </mxCell>
                <mxCell id="16" style="edgeStyle=none;html=1;" parent="1" source="12" target="15" edge="1">
                    <mxGeometry relative="1" as="geometry"/>
                </mxCell>
                <mxCell id="12" value="&lt;div style=&quot;color: rgb(216, 222, 233); background-color: rgb(54, 61, 70); font-family: &amp;quot;JetBrains Mono&amp;quot;, Calibri, &amp;quot;MesloLGL Nerd Font&amp;quot;, Consolas, &amp;quot;Courier New&amp;quot;, Consolas, &amp;quot;Courier New&amp;quot;, monospace; font-size: 13px; line-height: 18px;&quot;&gt;&lt;span style=&quot;color: #f9ae58;&quot;&gt;numero1,&amp;nbsp;&lt;/span&gt;&lt;span style=&quot;color: rgb(249, 174, 88);&quot;&gt;numero2&lt;/span&gt;&lt;/div&gt;" style="shape=parallelogram;html=1;strokeWidth=2;perimeter=parallelogramPerimeter;whiteSpace=wrap;rounded=1;arcSize=12;size=0.23;" parent="1" vertex="1">
                    <mxGeometry x="273.5" y="251" width="190" height="41" as="geometry"/>
                </mxCell>
                <mxCell id="18" value="SI" style="edgeStyle=none;html=1;entryX=0;entryY=0.5;entryDx=0;entryDy=0;entryPerimeter=0;" parent="1" source="15" target="17" edge="1">
                    <mxGeometry relative="1" as="geometry"/>
                </mxCell>
                <mxCell id="23" value="" style="edgeStyle=none;html=1;" parent="1" source="15" target="22" edge="1">
                    <mxGeometry relative="1" as="geometry"/>
                </mxCell>
                <mxCell id="15" value="&lt;div style=&quot;color: rgb(216, 222, 233); background-color: rgb(54, 61, 70); font-family: &amp;quot;JetBrains Mono&amp;quot;, Calibri, &amp;quot;MesloLGL Nerd Font&amp;quot;, Consolas, &amp;quot;Courier New&amp;quot;, Consolas, &amp;quot;Courier New&amp;quot;, monospace; font-size: 13px; line-height: 18px;&quot;&gt;&lt;span style=&quot;color: #f9ae58;&quot;&gt;numero1&lt;/span&gt; &lt;span style=&quot;color: #f97b58;&quot;&gt;==&lt;/span&gt; &lt;span style=&quot;color: #f9ae58;&quot;&gt;numer2&lt;/span&gt;&lt;/div&gt;" style="strokeWidth=2;html=1;shape=mxgraph.flowchart.decision;whiteSpace=wrap;" parent="1" vertex="1">
                    <mxGeometry x="318.5" y="329" width="100" height="78" as="geometry"/>
                </mxCell>
                <mxCell id="31" style="edgeStyle=none;html=1;" parent="1" source="17" edge="1">
                    <mxGeometry relative="1" as="geometry">
                        <mxPoint x="369" y="643" as="targetPoint"/>
                        <Array as="points">
                            <mxPoint x="719" y="368"/>
                            <mxPoint x="719" y="588"/>
                            <mxPoint x="372" y="598"/>
                        </Array>
                    </mxGeometry>
                </mxCell>
                <mxCell id="17" value="&lt;div style=&quot;color: rgb(216, 222, 233); background-color: rgb(54, 61, 70); font-family: &amp;quot;JetBrains Mono&amp;quot;, Calibri, &amp;quot;MesloLGL Nerd Font&amp;quot;, Consolas, &amp;quot;Courier New&amp;quot;, Consolas, &amp;quot;Courier New&amp;quot;, monospace; font-size: 13px; line-height: 18px;&quot;&gt;&lt;div style=&quot;line-height: 18px;&quot;&gt;&lt;span style=&quot;color: #5fb3b3;&quot;&gt;&quot;&lt;/span&gt;&lt;span style=&quot;color: #99c794;&quot;&gt;Son iguales &lt;/span&gt;&lt;span style=&quot;color: #c594c5;&quot;&gt;\n&lt;/span&gt;&lt;span style=&quot;color: #5fb3b3;&quot;&gt;&quot;&lt;/span&gt;&lt;/div&gt;&lt;/div&gt;" style="strokeWidth=2;html=1;shape=mxgraph.flowchart.document2;whiteSpace=wrap;size=0.25;" parent="1" vertex="1">
                    <mxGeometry x="519" y="345" width="134" height="46" as="geometry"/>
                </mxCell>
                <mxCell id="25" value="SI" style="edgeStyle=none;html=1;" parent="1" source="22" target="24" edge="1">
                    <mxGeometry relative="1" as="geometry"/>
                </mxCell>
                <mxCell id="27" value="NO" style="edgeStyle=none;html=1;entryX=1;entryY=0.5;entryDx=0;entryDy=0;entryPerimeter=0;" parent="1" source="22" target="26" edge="1">
                    <mxGeometry relative="1" as="geometry"/>
                </mxCell>
                <mxCell id="22" value="&lt;div style=&quot;color: rgb(216, 222, 233); background-color: rgb(54, 61, 70); font-family: &amp;quot;JetBrains Mono&amp;quot;, Calibri, &amp;quot;MesloLGL Nerd Font&amp;quot;, Consolas, &amp;quot;Courier New&amp;quot;, Consolas, &amp;quot;Courier New&amp;quot;, monospace; font-size: 13px; line-height: 18px;&quot;&gt;&lt;span style=&quot;color: #f9ae58;&quot;&gt;numero1&lt;/span&gt; &lt;span style=&quot;color: #f97b58;&quot;&gt;&amp;gt;&lt;/span&gt; &lt;span style=&quot;color: #f9ae58;&quot;&gt;numero2&lt;/span&gt;&lt;/div&gt;" style="rhombus;whiteSpace=wrap;html=1;strokeWidth=2;" parent="1" vertex="1">
                    <mxGeometry x="328.5" y="486" width="80" height="80" as="geometry"/>
                </mxCell>
                <mxCell id="30" style="edgeStyle=none;html=1;entryX=0.5;entryY=0;entryDx=0;entryDy=0;entryPerimeter=0;exitX=0.561;exitY=0.814;exitDx=0;exitDy=0;exitPerimeter=0;" parent="1" source="24" target="28" edge="1">
                    <mxGeometry relative="1" as="geometry">
                        <mxPoint x="563" y="588" as="sourcePoint"/>
                        <Array as="points">
                            <mxPoint x="566" y="589"/>
                            <mxPoint x="369" y="596"/>
                        </Array>
                    </mxGeometry>
                </mxCell>
                <mxCell id="24" value="&lt;div style=&quot;color: rgb(216, 222, 233); background-color: rgb(54, 61, 70); font-family: &amp;quot;JetBrains Mono&amp;quot;, Calibri, &amp;quot;MesloLGL Nerd Font&amp;quot;, Consolas, &amp;quot;Courier New&amp;quot;, Consolas, &amp;quot;Courier New&amp;quot;, monospace; font-size: 13px; line-height: 18px;&quot;&gt;&lt;div style=&quot;line-height: 18px;&quot;&gt;&lt;div style=&quot;line-height: 18px;&quot;&gt;&lt;span style=&quot;color: #5fb3b3;&quot;&gt;&quot;&lt;/span&gt;&lt;span style=&quot;color: #99c794;&quot;&gt;el mayor es: &lt;/span&gt;&lt;span style=&quot;color: #c594c5;&quot;&gt;%i&lt;/span&gt;&lt;span style=&quot;color: #5fb3b3;&quot;&gt;&quot;&lt;/span&gt;&lt;span style=&quot;color: #a7adba;&quot;&gt;,&lt;/span&gt; &lt;span style=&quot;color: #f9ae58;&quot;&gt;numero1&lt;/span&gt;&lt;/div&gt;&lt;/div&gt;&lt;/div&gt;" style="strokeWidth=2;html=1;shape=mxgraph.flowchart.document2;whiteSpace=wrap;size=0.25;" parent="1" vertex="1">
                    <mxGeometry x="491" y="501" width="134" height="46" as="geometry"/>
                </mxCell>
                <mxCell id="29" style="edgeStyle=none;html=1;entryX=0.5;entryY=0;entryDx=0;entryDy=0;entryPerimeter=0;" parent="1" source="26" target="28" edge="1">
                    <mxGeometry relative="1" as="geometry">
                        <Array as="points">
                            <mxPoint x="190" y="591"/>
                            <mxPoint x="369" y="591"/>
                        </Array>
                    </mxGeometry>
                </mxCell>
                <mxCell id="26" value="&lt;div style=&quot;color: rgb(216, 222, 233); background-color: rgb(54, 61, 70); font-family: &amp;quot;JetBrains Mono&amp;quot;, Calibri, &amp;quot;MesloLGL Nerd Font&amp;quot;, Consolas, &amp;quot;Courier New&amp;quot;, Consolas, &amp;quot;Courier New&amp;quot;, monospace; font-size: 13px; line-height: 18px;&quot;&gt;&lt;div style=&quot;line-height: 18px;&quot;&gt;&lt;div style=&quot;line-height: 18px;&quot;&gt;&lt;span style=&quot;color: #5fb3b3;&quot;&gt;&quot;&lt;/span&gt;&lt;span style=&quot;color: #99c794;&quot;&gt;el mayor es: &lt;/span&gt;&lt;span style=&quot;color: #c594c5;&quot;&gt;%i&lt;/span&gt;&lt;span style=&quot;color: #5fb3b3;&quot;&gt;&quot;&lt;/span&gt;&lt;span style=&quot;color: #a7adba;&quot;&gt;,&lt;/span&gt; &lt;span style=&quot;color: #f9ae58;&quot;&gt;numero2&lt;/span&gt;&lt;/div&gt;&lt;/div&gt;&lt;/div&gt;" style="strokeWidth=2;html=1;shape=mxgraph.flowchart.document2;whiteSpace=wrap;size=0.25;" parent="1" vertex="1">
                    <mxGeometry x="123" y="507" width="134" height="46" as="geometry"/>
                </mxCell>
                <mxCell id="28" value="inicio" style="strokeWidth=2;html=1;shape=mxgraph.flowchart.terminator;whiteSpace=wrap;" parent="1" vertex="1">
                    <mxGeometry x="333" y="645" width="71" height="28" as="geometry"/>
                </mxCell>
            </root>
        </mxGraphModel>
    </diagram>
</mxfile>